<?xml version="1.0" standalone="no"?>
<!DOCTYPE svg PUBLIC "-//W3C//DTD SVG 20010904//EN"
 "http://www.w3.org/TR/2001/REC-SVG-20010904/DTD/svg10.dtd">
<svg version="1.0" xmlns="http://www.w3.org/2000/svg"
 width="100.000000pt" height="100.000000pt" viewBox="0 0 100.000000 100.000000"
 preserveAspectRatio="xMidYMid meet">

<g transform="translate(0.000000,100.000000) scale(0.100000,-0.100000)"
fill="#000000" stroke="none">
<path d="M351 880 c-24 -6 -63 -37 -132 -106 -55 -54 -99 -104 -99 -111 0 -7
-6 -13 -13 -13 -15 0 -77 -61 -77 -76 0 -16 104 -114 121 -114 20 0 69 52 69
73 0 9 7 17 15 17 8 0 30 14 49 31 l35 30 60 -63 61 -63 -43 -40 c-23 -22 -77
-72 -120 -112 -97 -90 -100 -109 -27 -177 27 -25 59 -46 70 -46 23 0 27 4 154
142 l88 97 56 -62 c117 -129 169 -177 191 -177 12 0 44 20 71 46 76 71 74 80
-72 216 -74 71 -118 119 -114 126 4 7 35 12 78 12 95 0 145 28 182 102 28 57
31 83 15 141 -16 57 -33 57 -93 -2 -31 -30 -61 -51 -74 -51 -37 0 -26 32 33
90 30 30 55 58 55 62 0 16 -61 38 -104 38 -81 0 -138 -37 -178 -114 -16 -32
-19 -52 -15 -97 5 -54 -3 -79 -26 -79 -13 0 -127 111 -127 124 0 7 27 38 60
71 33 33 60 67 60 77 0 16 -10 18 -87 17 -49 -1 -103 -5 -122 -9z m457 -39
c10 -6 3 -17 -28 -41 -40 -32 -41 -33 -38 -89 l3 -56 49 -3 c46 -3 52 -1 93
39 l43 43 0 -39 c0 -101 -111 -174 -205 -135 -15 6 -27 1 -47 -18 l-28 -26
-25 24 -25 24 23 25 c22 23 24 33 20 91 -5 81 17 122 80 150 46 22 65 24 85
11z m-377 -46 c-50 -54 -52 -82 -9 -130 l31 -36 -21 -21 -21 -21 -36 31 c-43
39 -74 40 -113 7 -17 -14 -41 -25 -55 -25 -25 0 -37 -16 -37 -50 0 -9 -6 -23
-13 -29 -10 -8 -21 -3 -46 23 -36 37 -30 52 24 58 25 2 31 8 33 33 2 22 25 52
80 108 42 43 86 83 97 87 11 5 44 9 74 9 l54 1 -42 -45z m195 -315 c71 -63
156 -140 190 -170 34 -30 65 -61 68 -68 8 -19 -52 -94 -73 -90 -9 2 -61 53
-115 113 -55 61 -135 150 -179 198 l-80 88 24 25 c12 13 26 23 30 22 4 -2 65
-55 135 -118z m-121 -70 l28 -29 -34 -38 c-19 -21 -65 -73 -103 -116 -38 -42
-74 -77 -81 -77 -18 0 -77 67 -73 83 3 18 207 206 224 207 5 0 23 -13 39 -30z"/>
</g>
</svg>
