<svg width="0" height="0" fill="none" style="visibility: hidden; position: absolute;" aria-hidden="true">
    <symbol id="logo" xmlns="http://www.w3.org/2000/svg" viewBox="0 0 100.000000 100.000000"
        preserveAspectRatio="xMidYMid meet">
        <g transform="translate(0.000000,100.000000) scale(0.100000,-0.100000)" stroke="none">
            <path
                d="M351 880 c-24 -6 -63 -37 -132 -106 -55 -54 -99 -104 -99 -111 0 -7 -6 -13 -13 -13 -15 0 -77 -61 -77 -76 0 -16 104 -114 121 -114 20 0 69 52 69 73 0 9 7 17 15 17 8 0 30 14 49 31 l35 30 60 -63 61 -63 -43 -40 c-23 -22 -77 -72 -120 -112 -97 -90 -100 -109 -27 -177 27 -25 59 -46 70 -46 23 0 27 4 154 142 l88 97 56 -62 c117 -129 169 -177 191 -177 12 0 44 20 71 46 76 71 74 80 -72 216 -74 71 -118 119 -114 126 4 7 35 12 78 12 95 0 145 28 182 102 28 57 31 83 15 141 -16 57 -33 57 -93 -2 -31 -30 -61 -51 -74 -51 -37 0 -26 32 33 90 30 30 55 58 55 62 0 16 -61 38 -104 38 -81 0 -138 -37 -178 -114 -16 -32 -19 -52 -15 -97 5 -54 -3 -79 -26 -79 -13 0 -127 111 -127 124 0 7 27 38 60 71 33 33 60 67 60 77 0 16 -10 18 -87 17 -49 -1 -103 -5 -122 -9z m457 -39 c10 -6 3 -17 -28 -41 -40 -32 -41 -33 -38 -89 l3 -56 49 -3 c46 -3 52 -1 93 39 l43 43 0 -39 c0 -101 -111 -174 -205 -135 -15 6 -27 1 -47 -18 l-28 -26 -25 24 -25 24 23 25 c22 23 24 33 20 91 -5 81 17 122 80 150 46 22 65 24 85 11z m-377 -46 c-50 -54 -52 -82 -9 -130 l31 -36 -21 -21 -21 -21 -36 31 c-43 39 -74 40 -113 7 -17 -14 -41 -25 -55 -25 -25 0 -37 -16 -37 -50 0 -9 -6 -23 -13 -29 -10 -8 -21 -3 -46 23 -36 37 -30 52 24 58 25 2 31 8 33 33 2 22 25 52 80 108 42 43 86 83 97 87 11 5 44 9 74 9 l54 1 -42 -45z m195 -315 c71 -63 156 -140 190 -170 34 -30 65 -61 68 -68 8 -19 -52 -94 -73 -90 -9 2 -61 53 -115 113 -55 61 -135 150 -179 198 l-80 88 24 25 c12 13 26 23 30 22 4 -2 65 -55 135 -118z m-121 -70 l28 -29 -34 -38 c-19 -21 -65 -73 -103 -116 -38 -42 -74 -77 -81 -77 -18 0 -77 67 -73 83 3 18 207 206 224 207 5 0 23 -13 39 -30z" />
        </g>
    </symbol>

    <symbol id="electricity" xmlns="http://www.w3.org/2000/svg" viewBox="0 0 24 24">
        <path stroke-linecap="round" stroke-linejoin="round" stroke-width="1.5"
            d="M9.217 2.75h7.246a.525.525 0 0 1 .483.735l-2.835 6.617h4.779a.21.21 0 0 1 .157.347L9.301 21.16a.2.2 0 0 1-.358-.168l.967-7.74H5.436a.526.526 0 0 1-.494-.725l3.78-9.452a.525.525 0 0 1 .495-.326" />
    </symbol>

    <symbol id="heating" xmlns="http://www.w3.org/2000/svg" viewBox="0 0 24 24">
        <path
            d="M12 22q-3.35 0-5.675-2.325T4 14q0-2.825 1.675-5.425t4.6-4.55q.55-.375 1.137-.038T12 5v1.3q0 .85.588 1.425t1.437.575q.425 0 .813-.188t.687-.537q.2-.25.513-.312t.587.137Q18.2 8.525 19.1 10.275T20 14q0 3.35-2.325 5.675T12 22m-6-8q0 1.3.525 2.463t1.5 2.037Q8 18.375 8 18.275v-.225q0-.8.3-1.5t.875-1.275L12 12.5l2.825 2.775q.575.575.875 1.275t.3 1.5v.225q0 .1-.025.225q.975-.875 1.5-2.037T18 14q0-1.25-.462-2.363T16.2 9.65q-.5.325-1.05.488t-1.125.162q-1.55 0-2.688-1.025T10.026 6.75q-1.95 1.65-2.988 3.513T6 14m6 1.3l-1.425 1.4q-.275.275-.425.625t-.15.725q0 .8.587 1.375T12 20q.825 0 1.412-.575T14 18.05q0-.4-.15-.737t-.425-.613z" />
    </symbol>

    <symbol id="painting" xmlns="http://www.w3.org/2000/svg" viewBox="0 0 14 14">
        <path stroke-linecap="round" stroke-linejoin="round"
            d="M11.5 8.5h-9l-.76 3.8a1 1 0 0 0 .21.83a1 1 0 0 0 .77.37h8.56a1 1 0 0 0 .77-.37a1 1 0 0 0 .21-.83Zm0-3a1 1 0 0 1 1 1v2h-11v-2a1 1 0 0 1 1-1H4a1 1 0 0 0 1-1v-2a2 2 0 0 1 4 0v2a1 1 0 0 0 1 1Zm-3 8V11" />
    </symbol>

    <symbol id="rule" xmlns="http://www.w3.org/2000/svg" viewBox="0 0 24 24">
        <path stroke-linecap="round" stroke-linejoin="round" stroke-width="2"
            d="m6.344 12l2.121 2.122m.707-4.95l2.121 2.12M12 6.344l2.122 2.122M5.07 13.273l8.202-8.203c.792-.792 1.188-1.188 1.645-1.336a2 2 0 0 1 1.236 0c.456.148.852.544 1.643 1.335L18.93 6.2c.792.792 1.188 1.19 1.337 1.646c.13.402.13.834 0 1.235c-.149.457-.545.853-1.337 1.645l-8.202 8.203c-.792.792-1.189 1.188-1.645 1.336c-.402.13-.834.13-1.235 0c-.457-.148-.854-.544-1.646-1.336l-1.133-1.133c-.79-.791-1.187-1.187-1.335-1.643a2 2 0 0 1 0-1.236c.148-.457.545-.853 1.337-1.645" />
    </symbol>

    <symbol id="roofing" xmlns="http://www.w3.org/2000/svg" viewBox="0 0 24 24">
        <path
            d="M5 20v-9.15L2.2 13L1 11.4L12 3l4 3.05V4h3v4.35l4 3.05l-1.2 1.6l-2.8-2.15V20h-6v-6h-2v6zm2-2h2v-6h6v6h2V9.325l-5-3.8l-5 3.8zm3-7.975h4q0-.8-.6-1.313T12 8.2q-.8 0-1.4.513t-.6 1.312M9 18v-6h6v6v-6H9z" />
    </symbol>

    <symbol id="sanitary" xmlns="http://www.w3.org/2000/svg" viewBox="-5 -2 24 24">
        <path
            d="M2 13a5 5 0 0 0 10 0c0-1.726-1.66-5.031-5-9.653C3.66 7.969 2 11.274 2 13M7 0c4.667 6.09 7 10.423 7 13a7 7 0 0 1-14 0c0-2.577 2.333-6.91 7-13" />
    </symbol>

    <symbol id="certificate" xmlns="http://www.w3.org/2000/svg" viewBox="0 0 256 256">
        <path
            d="M248 128a52 52 0 1 0-92 33.19V220a12 12 0 0 0 18 10.42l22-12.6l22.05 12.6A12 12 0 0 0 236 220v-58.81A51.77 51.77 0 0 0 248 128m-52-28a28 28 0 1 1-28 28a28 28 0 0 1 28-28m6 93.58a12 12 0 0 0-11.9 0l-10.1 5.74v-21.85a51.86 51.86 0 0 0 32 0v21.85ZM140 192a12 12 0 0 1-12 12H40a20 20 0 0 1-20-20V56a20 20 0 0 1 20-20h176a20 20 0 0 1 20 20a12 12 0 0 1-23.32 4H44v120h84a12 12 0 0 1 12 12m-12-52a12 12 0 0 1-12 12H76a12 12 0 0 1 0-24h40a12 12 0 0 1 12 12m0-40a12 12 0 0 1-12 12H76a12 12 0 0 1 0-24h40a12 12 0 0 1 12 12" />
    </symbol>

    <symbol id="time" xmlns="http://www.w3.org/2000/svg" viewBox="0 0 24 24">
        <path
            d="M11.99 2C6.47 2 2 6.48 2 12s4.47 10 9.99 10C17.52 22 22 17.52 22 12S17.52 2 11.99 2M12 20c-4.42 0-8-3.58-8-8s3.58-8 8-8s8 3.58 8 8s-3.58 8-8 8" />
        <path d="M12.5 7H11v6l5.25 3.15l.75-1.23l-4.5-2.67z" />
    </symbol>

    <symbol id="price" xmlns="http://www.w3.org/2000/svg" viewBox="0 0 20 20">
        <path
            d="M4.5 2A1.5 1.5 0 0 0 3 3.5v13A1.5 1.5 0 0 0 4.5 18h7a1.5 1.5 0 0 0 1.5-1.5V15a.5.5 0 0 0-.5-.5c-.413 0-.677-.102-.856-.236c-.183-.137-.322-.342-.424-.623c-.214-.588-.22-1.367-.22-2.141a.5.5 0 0 0-.147-.354l-.286-.287l-1.213-1.213c-.467-.467-.604-.78-.63-.955c-.02-.14.022-.234.122-.33c.214-.205.367-.344.54-.386c.103-.026.338-.044.76.378l3 3a.5.5 0 0 0 .708-.707L13 9.793V6.707l2.56 2.56a1.5 1.5 0 0 1 .44 1.061V17.5a.5.5 0 0 0 1 0v-7.172a2.5 2.5 0 0 0-.732-1.767L13 5.293V3.5A1.5 1.5 0 0 0 11.5 2zM12 5.5v3.293l-1.146-1.147c-.578-.578-1.154-.777-1.705-.643a1.517 1.517 0 0 0-.313.115A3.001 3.001 0 0 0 5 10a3 3 0 0 0 5.007 2.23c.017.578.075 1.21.273 1.753c.148.407.384.796.764 1.08l.006.006A1.5 1.5 0 0 0 10 16.5v.5H6v-.5A1.5 1.5 0 0 0 4.5 15H4V5h.5A1.5 1.5 0 0 0 6 3.5V3h4v.5A1.5 1.5 0 0 0 11.5 5h.5zm0 11v.009a.5.5 0 0 1-.5.491H11v-.5a.5.5 0 0 1 .5-.5h.5zM6 10a2 2 0 0 1 1.874-1.996c-.124.23-.187.51-.139.833c.071.482.378.983.911 1.516l.907.907A2 2 0 0 1 6 10M5 3v.5a.5.5 0 0 1-.5.5H4v-.5a.5.5 0 0 1 .5-.5zM4 16h.5a.5.5 0 0 1 .5.5v.5h-.5a.5.5 0 0 1-.5-.5zm8-12h-.5a.5.5 0 0 1-.5-.5V3h.5a.5.5 0 0 1 .5.5z" />
    </symbol>

    <symbol id="phone" xmlns="http://www.w3.org/2000/svg" viewBox="0 0 24 24">
        <path fill-rule="evenodd"
            d="m16.1 13.359l.456-.453c.63-.626 1.611-.755 2.417-.317l1.91 1.039c1.227.667 1.498 2.302.539 3.255l-1.42 1.412c-.362.36-.81.622-1.326.67c-1.192.111-3.645.051-6.539-1.643zm-5.91-5.876l.287-.286c.707-.702.774-1.83.157-2.654L9.374 2.86C8.61 1.84 7.135 1.705 6.26 2.575l-1.57 1.56c-.433.432-.723.99-.688 1.61c.065 1.14.453 3.22 2.149 5.776z"
            clip-rule="evenodd" />
        <path
            d="M12.063 11.497c-2.946-2.929-1.88-4.008-1.873-4.015l-4.039 4.04c.667 1.004 1.535 2.081 2.664 3.204c1.14 1.134 2.26 1.975 3.322 2.596L16.1 13.36s-1.082 1.076-4.037-1.862"
            opacity=".6" />
    </symbol>

    <symbol id="mail" xmlns="http://www.w3.org/2000/svg" viewBox="0 0 16 16">
        <path fill-rule="evenodd"
            d="M2 3.5h12a.5.5 0 0 1 .5.5v.572L8 8.286L1.5 4.572V4a.5.5 0 0 1 .5-.5m-.5 2.8V12a.5.5 0 0 0 .5.5h12a.5.5 0 0 0 .5-.5V6.3L8.372 9.8L8 10.014L7.628 9.8zM0 4a2 2 0 0 1 2-2h12a2 2 0 0 1 2 2v8a2 2 0 0 1-2 2H2a2 2 0 0 1-2-2z"
            clip-rule="evenodd" />
    </symbol>

    <symbol id="location" xmlns="http://www.w3.org/2000/svg" viewBox="0 0 24 24">
        <path
            d="M12 12q.825 0 1.413-.587T14 10q0-.825-.587-1.412T12 8q-.825 0-1.412.588T10 10q0 .825.588 1.413T12 12m0 10q-4.025-3.425-6.012-6.362T4 10.2q0-3.75 2.413-5.975T12 2q3.175 0 5.588 2.225T20 10.2q0 2.5-1.987 5.438T12 22" />
    </symbol>

    <symbol id="facebook" xmlns="http://www.w3.org/2000/svg" viewBox="0 0 24 24">
        <path
            d="M22 12c0-5.52-4.48-10-10-10S2 6.48 2 12c0 4.84 3.44 8.87 8 9.8V15H8v-3h2V9.5C10 7.57 11.57 6 13.5 6H16v3h-2c-.55 0-1 .45-1 1v2h3v3h-3v6.95c5.05-.5 9-4.76 9-9.95" />
    </symbol>

    <symbol id="instagram" xmlns="http://www.w3.org/2000/svg" viewBox="0 0 24 24">
        <path
            d="M7.8 2h8.4C19.4 2 22 4.6 22 7.8v8.4a5.8 5.8 0 0 1-5.8 5.8H7.8C4.6 22 2 19.4 2 16.2V7.8A5.8 5.8 0 0 1 7.8 2m-.2 2A3.6 3.6 0 0 0 4 7.6v8.8C4 18.39 5.61 20 7.6 20h8.8a3.6 3.6 0 0 0 3.6-3.6V7.6C20 5.61 18.39 4 16.4 4zm9.65 1.5a1.25 1.25 0 0 1 1.25 1.25A1.25 1.25 0 0 1 17.25 8A1.25 1.25 0 0 1 16 6.75a1.25 1.25 0 0 1 1.25-1.25M12 7a5 5 0 0 1 5 5a5 5 0 0 1-5 5a5 5 0 0 1-5-5a5 5 0 0 1 5-5m0 2a3 3 0 0 0-3 3a3 3 0 0 0 3 3a3 3 0 0 0 3-3a3 3 0 0 0-3-3" />
    </symbol>

    <symbol id="arrow" xmlns="http://www.w3.org/2000/svg" viewBox="0 0 24 24">
        <path
            d="M16.15 13H5q-.425 0-.712-.288T4 12q0-.425.288-.712T5 11h11.15L13.3 8.15q-.3-.3-.288-.7t.288-.7q.3-.3.713-.312t.712.287L19.3 11.3q.15.15.213.325t.062.375q0 .2-.062.375t-.213.325l-4.575 4.575q-.3.3-.712.288t-.713-.313q-.275-.3-.288-.7t.288-.7z" />
    </symbol>
</svg>